<svg xmlns="http://www.w3.org/2000/svg" xmlns:xlink="http://www.w3.org/1999/xlink" version="1.1" width="256" height="256" viewBox="0 0 256 256" xml:space="preserve">

<defs>
</defs>
<g style="stroke: none; stroke-width: 0; stroke-dasharray: none; stroke-linecap: butt; stroke-linejoin: miter; stroke-miterlimit: 10; fill: none; fill-rule: nonzero; opacity: 1;" transform="translate(1.4065934065934016 1.4065934065934016) scale(2.81 2.81)" >
	<path d="M 59.599 90 h 13.364 c 1.602 0 2.9 -1.298 2.9 -2.9 V 16.874 L 58.99 0 H 17.283 c -1.602 0 -2.9 1.298 -2.9 2.9 v 18.662 v 23.234 v 7.612 V 87.1 c 0 1.602 1.298 2.9 2.9 2.9 h 13.044 H 59.599 z" style="stroke: none; stroke-width: 1; stroke-dasharray: none; stroke-linecap: butt; stroke-linejoin: miter; stroke-miterlimit: 10; fill: rgb(234,84,64); fill-rule: nonzero; opacity: 1;" transform=" matrix(1 0 0 1 0 0) " stroke-linecap="round" />
	<path d="M 75.864 16.874 H 61.632 c -1.459 0 -2.642 -1.183 -2.642 -2.642 V 0 L 75.864 16.874 z" style="stroke: none; stroke-width: 1; stroke-dasharray: none; stroke-linecap: butt; stroke-linejoin: miter; stroke-miterlimit: 10; fill: rgb(197,72,55); fill-rule: nonzero; opacity: 1;" transform=" matrix(1 0 0 1 0 0) " stroke-linecap="round" />
	<path d="M 29.945 58.033 h -5.87 c -0.829 0 -1.5 -0.672 -1.5 -1.5 v -9.729 c 0 -0.829 0.671 -1.5 1.5 -1.5 h 5.87 c 2.373 0 4.303 1.931 4.303 4.303 v 4.124 C 34.248 56.103 32.318 58.033 29.945 58.033 z M 25.576 55.033 h 4.37 c 0.718 0 1.303 -0.584 1.303 -1.303 v -4.124 c 0 -0.719 -0.584 -1.303 -1.303 -1.303 h -4.37 V 55.033 z" style="stroke: none; stroke-width: 1; stroke-dasharray: none; stroke-linecap: butt; stroke-linejoin: miter; stroke-miterlimit: 10; fill: rgb(255,255,255); fill-rule: nonzero; opacity: 1;" transform=" matrix(1 0 0 1 0 0) " stroke-linecap="round" />
	<path d="M 24.076 64.696 c -0.829 0 -1.5 -0.672 -1.5 -1.5 v -6.663 c 0 -0.828 0.671 -1.5 1.5 -1.5 s 1.5 0.672 1.5 1.5 v 6.663 C 25.576 64.024 24.904 64.696 24.076 64.696 z" style="stroke: none; stroke-width: 1; stroke-dasharray: none; stroke-linecap: butt; stroke-linejoin: miter; stroke-miterlimit: 10; fill: rgb(255,255,255); fill-rule: nonzero; opacity: 1;" transform=" matrix(1 0 0 1 0 0) " stroke-linecap="round" />
	<path d="M 46.096 64.696 h -5.582 c -0.829 0 -1.5 -0.672 -1.5 -1.5 V 46.804 c 0 -0.829 0.671 -1.5 1.5 -1.5 h 5.582 c 2.531 0 4.591 2.06 4.591 4.591 v 10.211 C 50.687 62.637 48.627 64.696 46.096 64.696 z M 42.014 61.696 h 4.082 c 0.877 0 1.591 -0.714 1.591 -1.591 V 49.895 c 0 -0.877 -0.714 -1.591 -1.591 -1.591 h -4.082 V 61.696 z" style="stroke: none; stroke-width: 1; stroke-dasharray: none; stroke-linecap: butt; stroke-linejoin: miter; stroke-miterlimit: 10; fill: rgb(255,255,255); fill-rule: nonzero; opacity: 1;" transform=" matrix(1 0 0 1 0 0) " stroke-linecap="round" />
	<path d="M 57.252 64.696 c -0.828 0 -1.5 -0.672 -1.5 -1.5 V 46.804 c 0 -0.829 0.672 -1.5 1.5 -1.5 s 1.5 0.671 1.5 1.5 v 16.393 C 58.752 64.024 58.08 64.696 57.252 64.696 z" style="stroke: none; stroke-width: 1; stroke-dasharray: none; stroke-linecap: butt; stroke-linejoin: miter; stroke-miterlimit: 10; fill: rgb(255,255,255); fill-rule: nonzero; opacity: 1;" transform=" matrix(1 0 0 1 0 0) " stroke-linecap="round" />
	<path d="M 65.925 48.304 h -8.673 c -0.828 0 -1.5 -0.672 -1.5 -1.5 c 0 -0.829 0.672 -1.5 1.5 -1.5 h 8.673 c 0.828 0 1.5 0.671 1.5 1.5 C 67.425 47.632 66.753 48.304 65.925 48.304 z" style="stroke: none; stroke-width: 1; stroke-dasharray: none; stroke-linecap: butt; stroke-linejoin: miter; stroke-miterlimit: 10; fill: rgb(255,255,255); fill-rule: nonzero; opacity: 1;" transform=" matrix(1 0 0 1 0 0) " stroke-linecap="round" />
	<path d="M 62.932 56.5 h -5.68 c -0.828 0 -1.5 -0.672 -1.5 -1.5 s 0.672 -1.5 1.5 -1.5 h 5.68 c 0.828 0 1.5 0.672 1.5 1.5 S 63.76 56.5 62.932 56.5 z" style="stroke: none; stroke-width: 1; stroke-dasharray: none; stroke-linecap: butt; stroke-linejoin: miter; stroke-miterlimit: 10; fill: rgb(255,255,255); fill-rule: nonzero; opacity: 1;" transform=" matrix(1 0 0 1 0 0) " stroke-linecap="round" />
</g>
</svg>